<svg width="12" height="9" viewBox="0 0 12 9" fill="none" xmlns="http://www.w3.org/2000/svg">
<g clip-path="url(#clip0)">
<mask id="mask0" mask-type="alpha" maskUnits="userSpaceOnUse" x="0" y="0" width="11" height="9">
<path d="M6.20325 0.866979C6.41478 0.655445 6.75775 0.655445 6.96928 0.866979L10.2193 4.11698C10.2403 4.13796 10.2595 4.16066 10.2769 4.18485C10.2851 4.19622 10.2929 4.20805 10.3002 4.2201C10.3083 4.23364 10.3158 4.24747 10.3228 4.26165C10.3289 4.27402 10.3346 4.28699 10.3399 4.30012C10.3459 4.31527 10.3512 4.3307 10.3559 4.34642C10.3601 4.36086 10.3637 4.37559 10.3668 4.39042C10.3741 4.42592 10.3779 4.46251 10.3779 4.49999L10.3731 4.42756C10.3753 4.44427 10.3768 4.46107 10.3775 4.4779L10.3779 4.49999C10.3779 4.50747 10.3778 4.51492 10.3775 4.52232C10.3768 4.53882 10.3754 4.55553 10.3731 4.57215C10.3716 4.58404 10.3696 4.59577 10.3673 4.60737C10.364 4.62333 10.36 4.63962 10.3552 4.65574C10.3511 4.66948 10.3467 4.68223 10.3419 4.69476C10.3361 4.70985 10.3292 4.72556 10.3215 4.74098C10.3157 4.75264 10.3096 4.76381 10.3032 4.77474C10.2806 4.81327 10.2525 4.84976 10.2193 4.88301L10.2769 4.81514C10.2757 4.81673 10.2746 4.81832 10.2734 4.8199L10.2193 4.88301L6.96928 8.13301C6.75775 8.34455 6.41478 8.34455 6.20325 8.13301C5.99171 7.92148 5.99171 7.57851 6.20325 7.36698L8.52793 5.04133L1.1696 5.04166C0.900358 5.04166 0.676999 4.84523 0.635019 4.58786L0.62793 4.49999C0.62793 4.20084 0.870442 3.95833 1.1696 3.95833L8.52793 3.95733L6.20325 1.63301C6.01522 1.44498 5.99432 1.1531 6.14057 0.941997L6.20325 0.866979Z" fill="white"/>
</mask>
<g mask="url(#mask0)">
<path d="M6.20325 0.866979C6.41478 0.655445 6.75775 0.655445 6.96928 0.866979L10.2193 4.11698C10.2403 4.13796 10.2595 4.16066 10.2769 4.18485C10.2851 4.19622 10.2929 4.20805 10.3002 4.2201C10.3083 4.23364 10.3158 4.24747 10.3228 4.26165C10.3289 4.27402 10.3346 4.28699 10.3399 4.30012C10.3459 4.31527 10.3512 4.3307 10.3559 4.34642C10.3601 4.36086 10.3637 4.37559 10.3668 4.39042C10.3741 4.42592 10.3779 4.46251 10.3779 4.49999L10.3731 4.42756C10.3753 4.44427 10.3768 4.46107 10.3775 4.4779L10.3779 4.49999C10.3779 4.50747 10.3778 4.51492 10.3775 4.52232C10.3768 4.53882 10.3754 4.55553 10.3731 4.57215C10.3716 4.58404 10.3696 4.59577 10.3673 4.60737C10.364 4.62333 10.36 4.63962 10.3552 4.65574C10.3511 4.66948 10.3467 4.68223 10.3419 4.69476C10.3361 4.70985 10.3292 4.72556 10.3215 4.74098C10.3157 4.75264 10.3096 4.76381 10.3032 4.77474C10.2806 4.81327 10.2525 4.84976 10.2193 4.88301L10.2769 4.81514C10.2757 4.81673 10.2746 4.81832 10.2734 4.8199L10.2193 4.88301L6.96928 8.13301C6.75775 8.34455 6.41478 8.34455 6.20325 8.13301C5.99171 7.92148 5.99171 7.57851 6.20325 7.36698L8.52793 5.04133L1.1696 5.04166C0.900358 5.04166 0.676999 4.84523 0.635019 4.58786L0.62793 4.49999C0.62793 4.20084 0.870442 3.95833 1.1696 3.95833L8.52793 3.95733L6.20325 1.63301C6.01522 1.44498 5.99432 1.1531 6.14057 0.941997L6.20325 0.866979Z" fill="#222222"/>
<path d="M12.0029 -2H-0.99707V11H12.0029V-2Z" fill="#222222"/>
</g>
</g>
<defs>
<clipPath id="clip0">
<rect x="0.00292969" width="11" height="9" fill="white"/>
</clipPath>
</defs>
</svg>
